<mxfile host="app.diagrams.net" modified="2023-09-08T20:09:07.480Z" agent="Mozilla/5.0 (Windows NT 10.0; Win64; x64) AppleWebKit/537.36 (KHTML, like Gecko) Chrome/116.0.0.0 Safari/537.36" etag="tOwsEJo5XRDzQe7XQIKY" version="21.7.3" type="gitlab">
  <diagram name="Page-1" id="9361dd3d-8414-5efd-6122-117bd74ce7a7">
    <mxGraphModel dx="1195" dy="625" grid="1" gridSize="10" guides="1" tooltips="1" connect="1" arrows="1" fold="1" page="0" pageScale="1.5" pageWidth="826" pageHeight="1169" background="none" math="0" shadow="0">
      <root>
        <mxCell id="0" />
        <mxCell id="1" parent="0" />
        <mxCell id="69" value="" style="fillColor=#DEE8FF;strokeColor=none" parent="1" vertex="1">
          <mxGeometry x="30" width="1570" height="2830" as="geometry" />
        </mxCell>
        <mxCell id="2" value="" style="fillColor=#CC4125;strokeColor=#660000" parent="1" vertex="1">
          <mxGeometry x="200" y="150" width="10" height="40" as="geometry" />
        </mxCell>
        <mxCell id="3" value="create()" style="edgeStyle=none;verticalLabelPosition=top;verticalAlign=bottom;labelPosition=left;align=right;entryX=-0.25;entryY=0.113;entryDx=0;entryDy=0;entryPerimeter=0;" parent="1" edge="1" target="6">
          <mxGeometry width="100" height="100" as="geometry">
            <mxPoint x="210" y="189" as="sourcePoint" />
            <mxPoint x="300" y="189" as="targetPoint" />
            <mxPoint as="offset" />
          </mxGeometry>
        </mxCell>
        <mxCell id="4" value=":administrateur" style="shadow=1;fillColor=#A2C4C9;strokeColor=none" parent="1" vertex="1">
          <mxGeometry x="152.5" y="60" width="105" height="50" as="geometry" />
        </mxCell>
        <mxCell id="6" value="" style="fillColor=#CC4125;strokeColor=#660000" parent="1" vertex="1">
          <mxGeometry x="342.5" y="180" width="10" height="80" as="geometry" />
        </mxCell>
        <mxCell id="7" value=":serveur" style="shadow=1;fillColor=#A2C4C9;strokeColor=none" parent="1" vertex="1">
          <mxGeometry x="295" y="60" width="105" height="50" as="geometry" />
        </mxCell>
        <mxCell id="8" value="" style="edgeStyle=none;endArrow=none;dashed=1" parent="1" source="7" target="6" edge="1">
          <mxGeometry x="272.3350694444445" y="165" width="100" height="100" as="geometry">
            <mxPoint x="347.2588734567901" y="110" as="sourcePoint" />
            <mxPoint x="347.5761959876544" y="165" as="targetPoint" />
          </mxGeometry>
        </mxCell>
        <mxCell id="13" value="&lt;&lt;create&gt;&gt;" style="edgeStyle=none;verticalLabelPosition=top;verticalAlign=bottom;dashed=1" parent="1" edge="1">
          <mxGeometry x="385.45524691358025" y="113.91550925925924" width="100" height="100" as="geometry">
            <mxPoint x="352.5" y="201.20563271604937" as="sourcePoint" />
            <mxPoint x="462.5" y="201.20563271604937" as="targetPoint" />
          </mxGeometry>
        </mxCell>
        <mxCell id="15" value="&lt;&lt;javascript&gt;&gt;&#xa;:Proxy" style="shadow=1;fillColor=#A2C4C9;strokeColor=none" parent="1" vertex="1">
          <mxGeometry x="462.2839506172839" y="169.99999999999997" width="105" height="50" as="geometry" />
        </mxCell>
        <mxCell id="16" value="" style="edgeStyle=none;endArrow=none" parent="1" source="15" edge="1">
          <mxGeometry x="437.042824074074" y="270" width="100" height="100" as="geometry">
            <mxPoint x="514.542824074074" y="219.99999999999997" as="sourcePoint" />
            <mxPoint x="514.7831612769346" y="244.39" as="targetPoint" />
          </mxGeometry>
        </mxCell>
        <mxCell id="19" value="&lt;&lt;ajax&gt;&gt;" style="edgeStyle=elbowEdgeStyle;elbow=vertical;verticalLabelPosition=top;verticalAlign=bottom" parent="1" source="6" edge="1">
          <mxGeometry x="350" y="290" width="100" height="100" as="geometry">
            <mxPoint x="350" y="390" as="sourcePoint" />
            <mxPoint x="509.78" y="252" as="targetPoint" />
          </mxGeometry>
        </mxCell>
        <mxCell id="21" value="" style="fillColor=#CC4125;strokeColor=#660000" parent="1" vertex="1">
          <mxGeometry x="670" y="269.3942901234568" width="10" height="80" as="geometry" />
        </mxCell>
        <mxCell id="22" value=":" style="shadow=1;fillColor=#A2C4C9;strokeColor=none" parent="1" vertex="1">
          <mxGeometry x="622.5" y="60" width="105" height="50" as="geometry" />
        </mxCell>
        <mxCell id="23" value="" style="edgeStyle=none;endArrow=none;dashed=1" parent="1" source="22" target="21" edge="1">
          <mxGeometry x="614.4878472222224" y="174.99999999999997" width="100" height="100" as="geometry">
            <mxPoint x="674.6527777777778" y="110" as="sourcePoint" />
            <mxPoint x="674.6527777777778" y="260" as="targetPoint" />
          </mxGeometry>
        </mxCell>
        <mxCell id="24" value=":participant" style="shadow=1;fillColor=#A2C4C9;strokeColor=none" parent="1" vertex="1">
          <mxGeometry x="750" y="60" width="105" height="50" as="geometry" />
        </mxCell>
        <mxCell id="25" value="" style="edgeStyle=none;endArrow=none;dashed=1" parent="1" source="24" target="26" edge="1">
          <mxGeometry x="727.3350694444446" y="165" width="100" height="100" as="geometry">
            <mxPoint x="802.2588734567901" y="110" as="sourcePoint" />
            <mxPoint x="802.5761959876544" y="165" as="targetPoint" />
          </mxGeometry>
        </mxCell>
        <mxCell id="26" value="" style="fillColor=#CC4125;strokeColor=#660000" parent="1" vertex="1">
          <mxGeometry x="792.5" y="540" width="10" height="260" as="geometry" />
        </mxCell>
        <mxCell id="27" value="&lt;&lt;ajax&gt;&gt;" style="edgeStyle=elbowEdgeStyle;elbow=vertical;verticalLabelPosition=top;verticalAlign=bottom" parent="1" target="21" edge="1">
          <mxGeometry x="540" y="270" width="100" height="100" as="geometry">
            <mxPoint x="519.78" y="270" as="sourcePoint" />
            <mxPoint x="640" y="270" as="targetPoint" />
            <Array as="points">
              <mxPoint x="590" y="270" />
            </Array>
          </mxGeometry>
        </mxCell>
        <mxCell id="28" value="open()" style="edgeStyle=elbowEdgeStyle;elbow=vertical;dashed=1;verticalLabelPosition=bottom;verticalAlign=top" parent="1" edge="1">
          <mxGeometry x="550" y="280" width="100" height="100" as="geometry">
            <mxPoint x="670" y="349.39" as="sourcePoint" />
            <mxPoint x="519.78" y="349.39" as="targetPoint" />
            <Array as="points">
              <mxPoint x="593" y="349.39" />
            </Array>
          </mxGeometry>
        </mxCell>
        <mxCell id="33" value="" style="edgeStyle=elbowEdgeStyle;elbow=horizontal;endArrow=none;dashed=1" parent="1" source="4" target="2" edge="1">
          <mxGeometry x="230.00000000000003" y="310" width="100" height="100" as="geometry">
            <mxPoint x="230.00000000000003" y="410" as="sourcePoint" />
            <mxPoint x="330" y="310" as="targetPoint" />
          </mxGeometry>
        </mxCell>
        <mxCell id="38" value="" style="edgeStyle=elbowEdgeStyle;elbow=horizontal;endArrow=none;dashed=1" parent="1" edge="1">
          <mxGeometry x="932.2588734567901" y="240" width="100" height="100" as="geometry">
            <mxPoint x="802.2588734567901" y="329.3942901234568" as="sourcePoint" />
            <mxPoint x="802.2588734567901" y="370" as="targetPoint" />
            <Array as="points">
              <mxPoint x="802.2588734567901" y="350" />
            </Array>
          </mxGeometry>
        </mxCell>
        <mxCell id="39" value="" style="ellipse;fillColor=none" parent="1" vertex="1">
          <mxGeometry x="802.5000000000001" y="304.3942901234568" width="9.999999999999886" height="10" as="geometry" />
        </mxCell>
        <mxCell id="40" value=" - user&#xa; validation&#xa;&#xa; - password check" style="shape=note;align=left" parent="1" vertex="1">
          <mxGeometry x="829.9729938271605" y="180.17361111111111" width="120.02700617283949" height="109.82638888888889" as="geometry" />
        </mxCell>
        <mxCell id="41" value="" style="edgeStyle=none;endArrow=none;dashed=1" parent="1" source="40" target="39" edge="1">
          <mxGeometry x="1030" y="180" width="100" height="100" as="geometry">
            <mxPoint x="1030" y="280" as="sourcePoint" />
            <mxPoint x="1130" y="180" as="targetPoint" />
          </mxGeometry>
        </mxCell>
        <mxCell id="44" value="" style="edgeStyle=none;dashed=1;endArrow=none" parent="1" target="h63ALeqCffesYacsJlQR-181" edge="1">
          <mxGeometry x="50" y="300" width="100" height="100" as="geometry">
            <mxPoint x="195" y="1080" as="sourcePoint" />
            <mxPoint x="185.45423387263304" y="2235.83" as="targetPoint" />
          </mxGeometry>
        </mxCell>
        <mxCell id="47" value="{100..600ms}" style="edgeStyle=elbowEdgeStyle;elbow=horizontal;startArrow=open;endArrow=open;labelPosition=left;align=right" parent="1" edge="1">
          <mxGeometry width="100" height="100" as="geometry">
            <mxPoint x="347.20563271604937" y="269.39" as="sourcePoint" />
            <mxPoint x="347.20563271604937" y="349.39" as="targetPoint" />
            <Array as="points">
              <mxPoint x="347" y="349.39" />
            </Array>
            <mxPoint x="-21" as="offset" />
          </mxGeometry>
        </mxCell>
        <mxCell id="71" value="rt game_playout" style="rounded=1;fontStyle=1;fillColor=#FFD966;strokeColor=none" parent="1" vertex="1">
          <mxGeometry x="50" y="20" width="150" height="30" as="geometry" />
        </mxCell>
        <mxCell id="h63ALeqCffesYacsJlQR-89" value=":organisateur" style="text;html=1;align=center;verticalAlign=middle;resizable=0;points=[];autosize=1;strokeColor=none;fillColor=none;" vertex="1" parent="1">
          <mxGeometry x="635" y="68" width="90" height="30" as="geometry" />
        </mxCell>
        <mxCell id="h63ALeqCffesYacsJlQR-96" value="join()" style="edgeStyle=elbowEdgeStyle;elbow=vertical;dashed=1;verticalLabelPosition=bottom;verticalAlign=top" edge="1" parent="1">
          <mxGeometry width="100" height="100" as="geometry">
            <mxPoint x="792.5" y="630" as="sourcePoint" />
            <mxPoint x="522.28" y="630" as="targetPoint" />
            <Array as="points">
              <mxPoint x="595.28" y="630" />
            </Array>
            <mxPoint x="-5" as="offset" />
          </mxGeometry>
        </mxCell>
        <mxCell id="h63ALeqCffesYacsJlQR-97" value="" style="fillColor=#CC4125;strokeColor=#660000" vertex="1" parent="1">
          <mxGeometry x="670" y="865.39" width="10" height="254.61" as="geometry" />
        </mxCell>
        <mxCell id="h63ALeqCffesYacsJlQR-99" value="&lt;&lt;ajax&gt;&gt;" style="edgeStyle=elbowEdgeStyle;elbow=vertical;verticalLabelPosition=top;verticalAlign=bottom;entryX=0;entryY=0.25;entryDx=0;entryDy=0;" edge="1" parent="1">
          <mxGeometry x="540" y="270" width="100" height="100" as="geometry">
            <mxPoint x="519.78" y="795" as="sourcePoint" />
            <mxPoint x="792.28" y="790" as="targetPoint" />
            <Array as="points">
              <mxPoint x="589.78" y="795" />
            </Array>
          </mxGeometry>
        </mxCell>
        <mxCell id="h63ALeqCffesYacsJlQR-101" value="start()" style="edgeStyle=elbowEdgeStyle;elbow=vertical;dashed=1;verticalLabelPosition=bottom;verticalAlign=top" edge="1" parent="1">
          <mxGeometry x="550" y="280" width="100" height="100" as="geometry">
            <mxPoint x="670" y="870" as="sourcePoint" />
            <mxPoint x="519.78" y="870" as="targetPoint" />
            <Array as="points">
              <mxPoint x="593" y="870" />
            </Array>
          </mxGeometry>
        </mxCell>
        <mxCell id="h63ALeqCffesYacsJlQR-103" value="" style="edgeStyle=none;endArrow=none;dashed=1" edge="1" parent="1" source="6" target="h63ALeqCffesYacsJlQR-102">
          <mxGeometry x="376.5711805555559" y="339.6971450617284" width="100" height="100" as="geometry">
            <mxPoint x="347" y="260" as="sourcePoint" />
            <mxPoint x="338" y="1170" as="targetPoint" />
          </mxGeometry>
        </mxCell>
        <mxCell id="h63ALeqCffesYacsJlQR-102" value="" style="fillColor=#CC4125;strokeColor=#660000" vertex="1" parent="1">
          <mxGeometry x="342.5" y="660" width="10" height="80" as="geometry" />
        </mxCell>
        <mxCell id="h63ALeqCffesYacsJlQR-104" value="&lt;&lt;ajax&gt;&gt;" style="edgeStyle=elbowEdgeStyle;elbow=vertical;dashed=1;verticalLabelPosition=bottom;verticalAlign=top;exitX=-0.078;exitY=0.358;exitDx=0;exitDy=0;exitPerimeter=0;" edge="1" parent="1">
          <mxGeometry x="550" y="280" width="100" height="100" as="geometry">
            <mxPoint x="509" y="656.01838" as="sourcePoint" />
            <mxPoint x="352.5" y="660" as="targetPoint" />
            <Array as="points">
              <mxPoint x="425.72" y="660" />
            </Array>
          </mxGeometry>
        </mxCell>
        <mxCell id="h63ALeqCffesYacsJlQR-105" value="&lt;&lt;validateRoomID&gt;&gt;" style="edgeStyle=none;verticalLabelPosition=top;verticalAlign=bottom;dashed=1;entryX=0.222;entryY=0.568;entryDx=0;entryDy=0;entryPerimeter=0;" edge="1" parent="1">
          <mxGeometry x="385.45524691358025" y="113.91550925925924" width="100" height="100" as="geometry">
            <mxPoint x="352.5" y="739.9956327160494" as="sourcePoint" />
            <mxPoint x="512" y="739.0964799999999" as="targetPoint" />
          </mxGeometry>
        </mxCell>
        <mxCell id="h63ALeqCffesYacsJlQR-106" value="" style="fillColor=#CC4125;strokeColor=#660000" vertex="1" parent="1">
          <mxGeometry x="509.78" y="250" width="10" height="140" as="geometry" />
        </mxCell>
        <mxCell id="h63ALeqCffesYacsJlQR-107" value="" style="fillColor=#CC4125;strokeColor=#660000" vertex="1" parent="1">
          <mxGeometry x="509.78" y="620" width="10" height="40" as="geometry" />
        </mxCell>
        <mxCell id="h63ALeqCffesYacsJlQR-109" value="" style="fillColor=#CC4125;strokeColor=#660000" vertex="1" parent="1">
          <mxGeometry x="670" y="470.0042901234568" width="10" height="80" as="geometry" />
        </mxCell>
        <mxCell id="h63ALeqCffesYacsJlQR-110" value="&lt;&lt;ajax&gt;&gt;" style="edgeStyle=elbowEdgeStyle;elbow=horizontal;verticalLabelPosition=top;verticalAlign=bottom" edge="1" parent="1">
          <mxGeometry x="540" y="270" width="100" height="100" as="geometry">
            <mxPoint x="519.78" y="470" as="sourcePoint" />
            <mxPoint x="670" y="470" as="targetPoint" />
            <Array as="points">
              <mxPoint x="590" y="470" />
            </Array>
          </mxGeometry>
        </mxCell>
        <mxCell id="h63ALeqCffesYacsJlQR-112" value="" style="fillColor=#CC4125;strokeColor=#660000" vertex="1" parent="1">
          <mxGeometry x="509.78" y="450" width="10" height="30" as="geometry" />
        </mxCell>
        <mxCell id="h63ALeqCffesYacsJlQR-113" value="" style="fillColor=#CC4125;strokeColor=#660000" vertex="1" parent="1">
          <mxGeometry x="342.5" y="360" width="10" height="90" as="geometry" />
        </mxCell>
        <mxCell id="h63ALeqCffesYacsJlQR-114" value="&lt;&lt;openGame&gt;&gt;" style="edgeStyle=elbowEdgeStyle;elbow=vertical;dashed=1;verticalLabelPosition=bottom;verticalAlign=top;entryX=0.75;entryY=0;entryDx=0;entryDy=0;" edge="1" parent="1" target="h63ALeqCffesYacsJlQR-113">
          <mxGeometry x="550" y="280" width="100" height="100" as="geometry">
            <mxPoint x="509.78" y="360" as="sourcePoint" />
            <mxPoint x="359.55999999999995" y="360" as="targetPoint" />
            <Array as="points">
              <mxPoint x="432.78" y="360" />
            </Array>
          </mxGeometry>
        </mxCell>
        <mxCell id="h63ALeqCffesYacsJlQR-115" value="&lt;&lt;vueAttente&gt;&gt;" style="edgeStyle=elbowEdgeStyle;elbow=vertical;verticalLabelPosition=top;verticalAlign=bottom" edge="1" parent="1">
          <mxGeometry x="350" y="290" width="100" height="100" as="geometry">
            <mxPoint x="352.5" y="450" as="sourcePoint" />
            <mxPoint x="509.28" y="450" as="targetPoint" />
          </mxGeometry>
        </mxCell>
        <mxCell id="h63ALeqCffesYacsJlQR-118" value="" style="curved=1;endArrow=classic;html=1;rounded=0;entryX=0.25;entryY=0.042;entryDx=0;entryDy=0;entryPerimeter=0;" edge="1" parent="1" target="26">
          <mxGeometry width="50" height="50" relative="1" as="geometry">
            <mxPoint x="680" y="550" as="sourcePoint" />
            <mxPoint x="730" y="500" as="targetPoint" />
            <Array as="points">
              <mxPoint x="710" y="550" />
              <mxPoint x="730" y="550" />
              <mxPoint x="680" y="500" />
            </Array>
          </mxGeometry>
        </mxCell>
        <mxCell id="h63ALeqCffesYacsJlQR-119" value=" - transmission de l&#39;organisateur au participant non-logicielle&#xa;&#xa;" style="shape=note;align=left" vertex="1" parent="1">
          <mxGeometry x="737.48" y="400" width="322.52" height="100" as="geometry" />
        </mxCell>
        <mxCell id="h63ALeqCffesYacsJlQR-120" value="" style="edgeStyle=none;endArrow=none;dashed=1;exitX=0;exitY=1;exitDx=0;exitDy=0;exitPerimeter=0;" edge="1" parent="1" source="h63ALeqCffesYacsJlQR-119">
          <mxGeometry x="1030" y="180" width="100" height="100" as="geometry">
            <mxPoint x="840" y="299" as="sourcePoint" />
            <mxPoint x="730" y="520" as="targetPoint" />
          </mxGeometry>
        </mxCell>
        <mxCell id="h63ALeqCffesYacsJlQR-121" value="" style="fillColor=#CC4125;strokeColor=#660000" vertex="1" parent="1">
          <mxGeometry x="509.78" y="740" width="10" height="60" as="geometry" />
        </mxCell>
        <mxCell id="h63ALeqCffesYacsJlQR-122" value="&lt;&lt;generateRoomID&gt;&gt;" style="edgeStyle=elbowEdgeStyle;elbow=vertical;dashed=1;verticalLabelPosition=bottom;verticalAlign=top;entryX=1;entryY=0.25;entryDx=0;entryDy=0;" edge="1" parent="1" target="h63ALeqCffesYacsJlQR-113">
          <mxGeometry x="550" y="280" width="100" height="100" as="geometry">
            <mxPoint x="509.7799999999999" y="390" as="sourcePoint" />
            <mxPoint x="359.55999999999995" y="390" as="targetPoint" />
            <Array as="points">
              <mxPoint x="432.78" y="390" />
            </Array>
          </mxGeometry>
        </mxCell>
        <mxCell id="h63ALeqCffesYacsJlQR-123" value="" style="fillColor=#CC4125;strokeColor=#660000" vertex="1" parent="1">
          <mxGeometry x="509.78" y="865.39" width="10" height="60" as="geometry" />
        </mxCell>
        <mxCell id="h63ALeqCffesYacsJlQR-124" value="" style="fillColor=#CC4125;strokeColor=#660000" vertex="1" parent="1">
          <mxGeometry x="340.28" y="923.98" width="10" height="166.02" as="geometry" />
        </mxCell>
        <mxCell id="h63ALeqCffesYacsJlQR-125" value="&lt;&lt;ajax&gt;&gt;" style="edgeStyle=elbowEdgeStyle;elbow=vertical;dashed=1;verticalLabelPosition=bottom;verticalAlign=top;exitX=-0.078;exitY=0.358;exitDx=0;exitDy=0;exitPerimeter=0;" edge="1" parent="1">
          <mxGeometry x="550" y="280" width="100" height="100" as="geometry">
            <mxPoint x="506.78" y="919.99838" as="sourcePoint" />
            <mxPoint x="350.28" y="923.98" as="targetPoint" />
            <Array as="points">
              <mxPoint x="423.5" y="923.98" />
            </Array>
          </mxGeometry>
        </mxCell>
        <mxCell id="h63ALeqCffesYacsJlQR-126" value="&lt;&lt;updateGameStatus&gt;&gt;" style="edgeStyle=none;verticalLabelPosition=top;verticalAlign=bottom;dashed=1;entryX=0.222;entryY=0.568;entryDx=0;entryDy=0;entryPerimeter=0;" edge="1" parent="1">
          <mxGeometry x="385.45524691358025" y="113.91550925925924" width="100" height="100" as="geometry">
            <mxPoint x="350.28" y="1003.9756327160494" as="sourcePoint" />
            <mxPoint x="509.78" y="1003.07648" as="targetPoint" />
          </mxGeometry>
        </mxCell>
        <mxCell id="h63ALeqCffesYacsJlQR-127" value="&lt;&lt;ajax&gt;&gt;" style="edgeStyle=elbowEdgeStyle;elbow=vertical;verticalLabelPosition=top;verticalAlign=bottom;" edge="1" parent="1">
          <mxGeometry x="540" y="270" width="100" height="100" as="geometry">
            <mxPoint x="519.78" y="1112" as="sourcePoint" />
            <mxPoint x="670" y="1110" as="targetPoint" />
            <Array as="points" />
          </mxGeometry>
        </mxCell>
        <mxCell id="h63ALeqCffesYacsJlQR-128" value="" style="fillColor=#CC4125;strokeColor=#660000" vertex="1" parent="1">
          <mxGeometry x="509.78" y="1000" width="10" height="110" as="geometry" />
        </mxCell>
        <mxCell id="h63ALeqCffesYacsJlQR-129" value="&lt;&lt;logGameTime&gt;&gt;" style="edgeStyle=elbowEdgeStyle;elbow=vertical;dashed=1;verticalLabelPosition=bottom;verticalAlign=top;entryX=0;entryY=0.25;entryDx=0;entryDy=0;" edge="1" parent="1">
          <mxGeometry x="550" y="280" width="100" height="100" as="geometry">
            <mxPoint x="350.22" y="1024.49" as="sourcePoint" />
            <mxPoint x="509.78" y="1035.51" as="targetPoint" />
            <Array as="points">
              <mxPoint x="273.22" y="1024.49" />
            </Array>
          </mxGeometry>
        </mxCell>
        <mxCell id="h63ALeqCffesYacsJlQR-131" value="" style="edgeStyle=none;dashed=1;endArrow=none" edge="1" parent="1" source="2">
          <mxGeometry x="50" y="300" width="100" height="100" as="geometry">
            <mxPoint x="205" y="190" as="sourcePoint" />
            <mxPoint x="195" y="1080" as="targetPoint" />
          </mxGeometry>
        </mxCell>
        <mxCell id="h63ALeqCffesYacsJlQR-132" value="&lt;&lt;logPlayerNumbers&gt;&gt;" style="edgeStyle=elbowEdgeStyle;elbow=vertical;dashed=1;verticalLabelPosition=bottom;verticalAlign=top;entryX=0;entryY=0.25;entryDx=0;entryDy=0;" edge="1" parent="1">
          <mxGeometry x="550" y="280" width="100" height="100" as="geometry">
            <mxPoint x="352.5" y="1048.98" as="sourcePoint" />
            <mxPoint x="512.06" y="1060" as="targetPoint" />
            <Array as="points">
              <mxPoint x="275.5" y="1048.98" />
            </Array>
          </mxGeometry>
        </mxCell>
        <mxCell id="h63ALeqCffesYacsJlQR-133" value="&lt;&lt;updateView&gt;&gt;" style="edgeStyle=elbowEdgeStyle;elbow=vertical;dashed=1;verticalLabelPosition=bottom;verticalAlign=top;entryX=0;entryY=0.25;entryDx=0;entryDy=0;" edge="1" parent="1">
          <mxGeometry x="550" y="280" width="100" height="100" as="geometry">
            <mxPoint x="350.22" y="1078.98" as="sourcePoint" />
            <mxPoint x="509.78" y="1090" as="targetPoint" />
            <Array as="points">
              <mxPoint x="273.22" y="1078.98" />
            </Array>
          </mxGeometry>
        </mxCell>
        <mxCell id="h63ALeqCffesYacsJlQR-134" value="" style="fillColor=#CC4125;strokeColor=#660000" vertex="1" parent="1">
          <mxGeometry x="792.5" y="1090" width="10" height="90" as="geometry" />
        </mxCell>
        <mxCell id="h63ALeqCffesYacsJlQR-135" value="&lt;&lt;ajax&gt;&gt;" style="edgeStyle=elbowEdgeStyle;elbow=vertical;verticalLabelPosition=top;verticalAlign=bottom;entryX=0.15;entryY=0.047;entryDx=0;entryDy=0;entryPerimeter=0;" edge="1" parent="1">
          <mxGeometry x="540" y="270" width="100" height="100" as="geometry">
            <mxPoint x="519.78" y="1099.75" as="sourcePoint" />
            <mxPoint x="794" y="1089.99667" as="targetPoint" />
            <Array as="points" />
          </mxGeometry>
        </mxCell>
        <mxCell id="h63ALeqCffesYacsJlQR-136" value="answerQCH()" style="edgeStyle=elbowEdgeStyle;elbow=vertical;dashed=1;verticalLabelPosition=bottom;verticalAlign=top" edge="1" parent="1">
          <mxGeometry width="100" height="100" as="geometry">
            <mxPoint x="790" y="1180" as="sourcePoint" />
            <mxPoint x="519.78" y="1180" as="targetPoint" />
            <Array as="points">
              <mxPoint x="592.78" y="1180" />
            </Array>
            <mxPoint x="-5" as="offset" />
          </mxGeometry>
        </mxCell>
        <mxCell id="h63ALeqCffesYacsJlQR-137" value="" style="fillColor=#CC4125;strokeColor=#660000" vertex="1" parent="1">
          <mxGeometry x="509.78" y="1175.83" width="10" height="64.17" as="geometry" />
        </mxCell>
        <mxCell id="h63ALeqCffesYacsJlQR-138" value="&lt;&lt;ajax&gt;&gt;" style="edgeStyle=elbowEdgeStyle;elbow=vertical;dashed=1;verticalLabelPosition=bottom;verticalAlign=top;exitX=-0.078;exitY=0.358;exitDx=0;exitDy=0;exitPerimeter=0;entryX=0.5;entryY=0;entryDx=0;entryDy=0;" edge="1" parent="1">
          <mxGeometry x="550" y="280" width="100" height="100" as="geometry">
            <mxPoint x="511.78" y="1236.01838" as="sourcePoint" />
            <mxPoint x="342.5" y="1239.9999999999998" as="targetPoint" />
            <Array as="points">
              <mxPoint x="428.5" y="1240" />
            </Array>
          </mxGeometry>
        </mxCell>
        <mxCell id="h63ALeqCffesYacsJlQR-140" value="" style="edgeStyle=none;endArrow=none;dashed=1" edge="1" parent="1" source="h63ALeqCffesYacsJlQR-102" target="h63ALeqCffesYacsJlQR-139">
          <mxGeometry x="376.5711805555559" y="339.6971450617284" width="100" height="100" as="geometry">
            <mxPoint x="347" y="740" as="sourcePoint" />
            <mxPoint x="328" y="2230" as="targetPoint" />
          </mxGeometry>
        </mxCell>
        <mxCell id="h63ALeqCffesYacsJlQR-139" value="" style="fillColor=#CC4125;strokeColor=#660000" vertex="1" parent="1">
          <mxGeometry x="332.5" y="1240" width="10" height="90" as="geometry" />
        </mxCell>
        <mxCell id="h63ALeqCffesYacsJlQR-141" value="&lt;&lt;isCorrect&gt;&gt;" style="edgeStyle=elbowEdgeStyle;elbow=vertical;dashed=1;verticalLabelPosition=bottom;verticalAlign=top;" edge="1" parent="1">
          <mxGeometry x="550" y="280" width="100" height="100" as="geometry">
            <mxPoint x="340.28000000000003" y="1300" as="sourcePoint" />
            <mxPoint x="510" y="1300" as="targetPoint" />
            <Array as="points" />
          </mxGeometry>
        </mxCell>
        <mxCell id="h63ALeqCffesYacsJlQR-142" value="{20000ms}" style="edgeStyle=elbowEdgeStyle;elbow=horizontal;startArrow=open;endArrow=open;labelPosition=left;align=right" edge="1" parent="1">
          <mxGeometry width="100" height="100" as="geometry">
            <mxPoint x="530.2056327160494" y="1180" as="sourcePoint" />
            <mxPoint x="530" y="1240" as="targetPoint" />
            <Array as="points">
              <mxPoint x="530" y="1260" />
            </Array>
            <mxPoint x="-21" as="offset" />
          </mxGeometry>
        </mxCell>
        <mxCell id="h63ALeqCffesYacsJlQR-143" value="" style="fillColor=#CC4125;strokeColor=#660000" vertex="1" parent="1">
          <mxGeometry x="509.78" y="1300" width="10" height="70" as="geometry" />
        </mxCell>
        <mxCell id="h63ALeqCffesYacsJlQR-144" value="" style="fillColor=#CC4125;strokeColor=#660000" vertex="1" parent="1">
          <mxGeometry x="792.5" y="1350" width="10" height="250" as="geometry" />
        </mxCell>
        <mxCell id="h63ALeqCffesYacsJlQR-145" value="&lt;&lt;updateQuestion&gt;&gt;" style="edgeStyle=elbowEdgeStyle;elbow=vertical;dashed=1;verticalLabelPosition=bottom;verticalAlign=top;entryX=0;entryY=0.25;entryDx=0;entryDy=0;" edge="1" parent="1">
          <mxGeometry x="550" y="280" width="100" height="100" as="geometry">
            <mxPoint x="344.18" y="1328.98" as="sourcePoint" />
            <mxPoint x="503.73999999999995" y="1340" as="targetPoint" />
            <Array as="points">
              <mxPoint x="267.18" y="1328.98" />
            </Array>
          </mxGeometry>
        </mxCell>
        <mxCell id="h63ALeqCffesYacsJlQR-147" value="&lt;&lt;ajax&gt;&gt;" style="edgeStyle=elbowEdgeStyle;elbow=vertical;verticalLabelPosition=top;verticalAlign=bottom;entryX=0.25;entryY=0;entryDx=0;entryDy=0;" edge="1" parent="1" target="h63ALeqCffesYacsJlQR-144">
          <mxGeometry x="540" y="270" width="100" height="100" as="geometry">
            <mxPoint x="519.78" y="1350" as="sourcePoint" />
            <mxPoint x="794" y="1340.24667" as="targetPoint" />
            <Array as="points" />
          </mxGeometry>
        </mxCell>
        <mxCell id="h63ALeqCffesYacsJlQR-148" value="" style="fillColor=#CC4125;strokeColor=#660000" vertex="1" parent="1">
          <mxGeometry x="670" y="1370" width="10" height="170" as="geometry" />
        </mxCell>
        <mxCell id="h63ALeqCffesYacsJlQR-149" value="&lt;&lt;ajax&gt;&gt;" style="edgeStyle=elbowEdgeStyle;elbow=vertical;verticalLabelPosition=top;verticalAlign=bottom;" edge="1" parent="1">
          <mxGeometry x="540" y="270" width="100" height="100" as="geometry">
            <mxPoint x="519.78" y="1372" as="sourcePoint" />
            <mxPoint x="670" y="1370" as="targetPoint" />
            <Array as="points" />
          </mxGeometry>
        </mxCell>
        <mxCell id="h63ALeqCffesYacsJlQR-150" value="{45000ms}" style="edgeStyle=elbowEdgeStyle;elbow=horizontal;startArrow=open;endArrow=open;labelPosition=left;align=right" edge="1" parent="1">
          <mxGeometry width="100" height="100" as="geometry">
            <mxPoint x="690.2056327160494" y="1370" as="sourcePoint" />
            <mxPoint x="690" y="1430" as="targetPoint" />
            <Array as="points">
              <mxPoint x="690" y="1450" />
            </Array>
            <mxPoint x="-21" as="offset" />
          </mxGeometry>
        </mxCell>
        <mxCell id="h63ALeqCffesYacsJlQR-151" value="pause()" style="edgeStyle=elbowEdgeStyle;elbow=vertical;dashed=1;verticalLabelPosition=bottom;verticalAlign=top" edge="1" parent="1">
          <mxGeometry x="550" y="280" width="100" height="100" as="geometry">
            <mxPoint x="670" y="1430" as="sourcePoint" />
            <mxPoint x="519.78" y="1430" as="targetPoint" />
            <Array as="points">
              <mxPoint x="593" y="1430" />
            </Array>
          </mxGeometry>
        </mxCell>
        <mxCell id="h63ALeqCffesYacsJlQR-152" value="answerQRL()" style="edgeStyle=elbowEdgeStyle;elbow=vertical;dashed=1;verticalLabelPosition=bottom;verticalAlign=top" edge="1" parent="1">
          <mxGeometry width="100" height="100" as="geometry">
            <mxPoint x="792.5" y="1600" as="sourcePoint" />
            <mxPoint x="522.28" y="1600" as="targetPoint" />
            <Array as="points">
              <mxPoint x="595.28" y="1600" />
            </Array>
            <mxPoint x="-5" as="offset" />
          </mxGeometry>
        </mxCell>
        <mxCell id="h63ALeqCffesYacsJlQR-153" value="pause()" style="edgeStyle=elbowEdgeStyle;elbow=vertical;dashed=1;verticalLabelPosition=bottom;verticalAlign=top" edge="1" parent="1">
          <mxGeometry x="550" y="280" width="100" height="100" as="geometry">
            <mxPoint x="670" y="1494.5800000000002" as="sourcePoint" />
            <mxPoint x="519.78" y="1494.5800000000002" as="targetPoint" />
            <Array as="points">
              <mxPoint x="593" y="1494.5800000000002" />
            </Array>
          </mxGeometry>
        </mxCell>
        <mxCell id="h63ALeqCffesYacsJlQR-154" value="" style="fillColor=#CC4125;strokeColor=#660000" vertex="1" parent="1">
          <mxGeometry x="509.78" y="1430" width="10" height="130" as="geometry" />
        </mxCell>
        <mxCell id="h63ALeqCffesYacsJlQR-155" value="&lt;&lt;ajax&gt;&gt;" style="edgeStyle=elbowEdgeStyle;elbow=vertical;verticalLabelPosition=top;verticalAlign=bottom;" edge="1" parent="1">
          <mxGeometry x="540" y="270" width="100" height="100" as="geometry">
            <mxPoint x="519.78" y="1452" as="sourcePoint" />
            <mxPoint x="670" y="1450" as="targetPoint" />
            <Array as="points" />
          </mxGeometry>
        </mxCell>
        <mxCell id="h63ALeqCffesYacsJlQR-156" value="&lt;&lt;ajax&gt;&gt;" style="edgeStyle=elbowEdgeStyle;elbow=vertical;verticalLabelPosition=top;verticalAlign=bottom;entryX=0.25;entryY=0;entryDx=0;entryDy=0;" edge="1" parent="1">
          <mxGeometry x="540" y="270" width="100" height="100" as="geometry">
            <mxPoint x="519.78" y="1469.58" as="sourcePoint" />
            <mxPoint x="795" y="1469.58" as="targetPoint" />
            <Array as="points" />
          </mxGeometry>
        </mxCell>
        <mxCell id="h63ALeqCffesYacsJlQR-157" value="&lt;&lt;ajax&gt;&gt;" style="edgeStyle=elbowEdgeStyle;elbow=vertical;verticalLabelPosition=top;verticalAlign=bottom;" edge="1" parent="1">
          <mxGeometry x="540" y="270" width="100" height="100" as="geometry">
            <mxPoint x="519.78" y="1542" as="sourcePoint" />
            <mxPoint x="670" y="1540" as="targetPoint" />
            <Array as="points" />
          </mxGeometry>
        </mxCell>
        <mxCell id="h63ALeqCffesYacsJlQR-158" value="&lt;&lt;ajax&gt;&gt;" style="edgeStyle=elbowEdgeStyle;elbow=vertical;verticalLabelPosition=top;verticalAlign=bottom;entryX=0.25;entryY=0;entryDx=0;entryDy=0;" edge="1" parent="1">
          <mxGeometry x="540" y="270" width="100" height="100" as="geometry">
            <mxPoint x="519.78" y="1560.4099999999999" as="sourcePoint" />
            <mxPoint x="795" y="1560.4099999999999" as="targetPoint" />
            <Array as="points" />
          </mxGeometry>
        </mxCell>
        <mxCell id="h63ALeqCffesYacsJlQR-159" value="{15000ms}" style="edgeStyle=elbowEdgeStyle;elbow=horizontal;startArrow=open;endArrow=open;labelPosition=left;align=right" edge="1" parent="1">
          <mxGeometry width="100" height="100" as="geometry">
            <mxPoint x="790.2056327160494" y="1560" as="sourcePoint" />
            <mxPoint x="790" y="1600" as="targetPoint" />
            <Array as="points">
              <mxPoint x="790" y="1640" />
            </Array>
            <mxPoint x="-21" as="offset" />
          </mxGeometry>
        </mxCell>
        <mxCell id="h63ALeqCffesYacsJlQR-160" value="" style="fillColor=#CC4125;strokeColor=#660000" vertex="1" parent="1">
          <mxGeometry x="509.78" y="1600" width="10" height="20" as="geometry" />
        </mxCell>
        <mxCell id="h63ALeqCffesYacsJlQR-161" value="&lt;&lt;ajax&gt;&gt;" style="edgeStyle=elbowEdgeStyle;elbow=vertical;dashed=1;verticalLabelPosition=bottom;verticalAlign=top;exitX=-0.078;exitY=0.358;exitDx=0;exitDy=0;exitPerimeter=0;entryX=0.5;entryY=0;entryDx=0;entryDy=0;" edge="1" parent="1">
          <mxGeometry x="550" y="280" width="100" height="100" as="geometry">
            <mxPoint x="509.59999999999997" y="1619.99838" as="sourcePoint" />
            <mxPoint x="340.32" y="1623.9799999999998" as="targetPoint" />
            <Array as="points">
              <mxPoint x="426.32" y="1623.98" />
            </Array>
          </mxGeometry>
        </mxCell>
        <mxCell id="h63ALeqCffesYacsJlQR-162" value="" style="fillColor=#CC4125;strokeColor=#660000" vertex="1" parent="1">
          <mxGeometry x="330.32" y="1623.98" width="10" height="116.02" as="geometry" />
        </mxCell>
        <mxCell id="h63ALeqCffesYacsJlQR-163" value="&lt;&lt;isCorrect&gt;&gt;" style="edgeStyle=elbowEdgeStyle;elbow=vertical;dashed=1;verticalLabelPosition=bottom;verticalAlign=top;" edge="1" parent="1">
          <mxGeometry x="550" y="280" width="100" height="100" as="geometry">
            <mxPoint x="338.1" y="1683.98" as="sourcePoint" />
            <mxPoint x="507.82" y="1683.98" as="targetPoint" />
            <Array as="points" />
          </mxGeometry>
        </mxCell>
        <mxCell id="h63ALeqCffesYacsJlQR-164" value="" style="fillColor=#CC4125;strokeColor=#660000" vertex="1" parent="1">
          <mxGeometry x="507.59999999999997" y="1683.98" width="10" height="70" as="geometry" />
        </mxCell>
        <mxCell id="h63ALeqCffesYacsJlQR-165" value="&lt;&lt;endGame&gt;&gt;" style="edgeStyle=elbowEdgeStyle;elbow=vertical;dashed=1;verticalLabelPosition=bottom;verticalAlign=top;entryX=0;entryY=0.25;entryDx=0;entryDy=0;" edge="1" parent="1">
          <mxGeometry x="550" y="280" width="100" height="100" as="geometry">
            <mxPoint x="342" y="1712.96" as="sourcePoint" />
            <mxPoint x="501.56" y="1723.98" as="targetPoint" />
            <Array as="points">
              <mxPoint x="265" y="1712.96" />
            </Array>
          </mxGeometry>
        </mxCell>
        <mxCell id="h63ALeqCffesYacsJlQR-166" value="" style="fillColor=#CC4125;strokeColor=#660000" vertex="1" parent="1">
          <mxGeometry x="790.32" y="1730" width="10" height="110" as="geometry" />
        </mxCell>
        <mxCell id="h63ALeqCffesYacsJlQR-167" value="&lt;&lt;ajax&gt;&gt;" style="edgeStyle=elbowEdgeStyle;elbow=vertical;verticalLabelPosition=top;verticalAlign=bottom;entryX=0.25;entryY=0;entryDx=0;entryDy=0;" edge="1" parent="1" target="h63ALeqCffesYacsJlQR-166">
          <mxGeometry x="540" y="270" width="100" height="100" as="geometry">
            <mxPoint x="517.6" y="1730" as="sourcePoint" />
            <mxPoint x="791.82" y="1720.24667" as="targetPoint" />
            <Array as="points" />
          </mxGeometry>
        </mxCell>
        <mxCell id="h63ALeqCffesYacsJlQR-168" value="" style="fillColor=#CC4125;strokeColor=#660000" vertex="1" parent="1">
          <mxGeometry x="667.82" y="1750" width="10" height="60" as="geometry" />
        </mxCell>
        <mxCell id="h63ALeqCffesYacsJlQR-169" value="&lt;&lt;ajax&gt;&gt;" style="edgeStyle=elbowEdgeStyle;elbow=vertical;verticalLabelPosition=top;verticalAlign=bottom;" edge="1" parent="1">
          <mxGeometry x="540" y="270" width="100" height="100" as="geometry">
            <mxPoint x="517.6" y="1752" as="sourcePoint" />
            <mxPoint x="667.82" y="1750" as="targetPoint" />
            <Array as="points" />
          </mxGeometry>
        </mxCell>
        <mxCell id="h63ALeqCffesYacsJlQR-170" value="&lt;&lt;udpateView&gt;&gt;" style="edgeStyle=elbowEdgeStyle;elbow=vertical;dashed=1;verticalLabelPosition=bottom;verticalAlign=top;entryX=0;entryY=0.25;entryDx=0;entryDy=0;" edge="1" parent="1">
          <mxGeometry x="550" y="280" width="100" height="100" as="geometry">
            <mxPoint x="342.5" y="1738.98" as="sourcePoint" />
            <mxPoint x="502.06" y="1750" as="targetPoint" />
            <Array as="points">
              <mxPoint x="265.5" y="1738.98" />
            </Array>
          </mxGeometry>
        </mxCell>
        <mxCell id="h63ALeqCffesYacsJlQR-172" value="switchResult()" style="edgeStyle=elbowEdgeStyle;elbow=vertical;dashed=1;verticalLabelPosition=bottom;verticalAlign=top" edge="1" parent="1">
          <mxGeometry width="100" height="100" as="geometry">
            <mxPoint x="792.5" y="1840" as="sourcePoint" />
            <mxPoint x="522.28" y="1840" as="targetPoint" />
            <Array as="points">
              <mxPoint x="595.28" y="1840" />
            </Array>
            <mxPoint x="-5" as="offset" />
          </mxGeometry>
        </mxCell>
        <mxCell id="h63ALeqCffesYacsJlQR-173" value="" style="fillColor=#CC4125;strokeColor=#660000" vertex="1" parent="1">
          <mxGeometry x="509.78" y="1840" width="10" height="50" as="geometry" />
        </mxCell>
        <mxCell id="h63ALeqCffesYacsJlQR-175" value="" style="edgeStyle=none;endArrow=none;dashed=1" edge="1" parent="1" source="h63ALeqCffesYacsJlQR-139" target="h63ALeqCffesYacsJlQR-174">
          <mxGeometry x="376.5711805555559" y="339.6971450617284" width="100" height="100" as="geometry">
            <mxPoint x="337" y="1330" as="sourcePoint" />
            <mxPoint x="328" y="2230" as="targetPoint" />
          </mxGeometry>
        </mxCell>
        <mxCell id="h63ALeqCffesYacsJlQR-174" value="" style="fillColor=#CC4125;strokeColor=#660000" vertex="1" parent="1">
          <mxGeometry x="322.5" y="1890" width="10" height="70" as="geometry" />
        </mxCell>
        <mxCell id="h63ALeqCffesYacsJlQR-176" value="&lt;&lt;ajax&gt;&gt;" style="edgeStyle=elbowEdgeStyle;elbow=vertical;dashed=1;verticalLabelPosition=bottom;verticalAlign=top;exitX=-0.078;exitY=0.358;exitDx=0;exitDy=0;exitPerimeter=0;entryX=1;entryY=0;entryDx=0;entryDy=0;" edge="1" parent="1" target="h63ALeqCffesYacsJlQR-174">
          <mxGeometry x="550" y="280" width="100" height="100" as="geometry">
            <mxPoint x="509.5999999999999" y="1886.01838" as="sourcePoint" />
            <mxPoint x="340.32" y="1889.9999999999998" as="targetPoint" />
            <Array as="points">
              <mxPoint x="426.32" y="1890" />
            </Array>
          </mxGeometry>
        </mxCell>
        <mxCell id="h63ALeqCffesYacsJlQR-177" value="&lt;&lt;showResult&gt;&gt;" style="edgeStyle=elbowEdgeStyle;elbow=vertical;dashed=1;verticalLabelPosition=bottom;verticalAlign=top;" edge="1" parent="1">
          <mxGeometry x="550" y="280" width="100" height="100" as="geometry">
            <mxPoint x="337.88" y="1960" as="sourcePoint" />
            <mxPoint x="507.5999999999999" y="1960" as="targetPoint" />
            <Array as="points" />
          </mxGeometry>
        </mxCell>
        <mxCell id="h63ALeqCffesYacsJlQR-178" value="" style="fillColor=#CC4125;strokeColor=#660000" vertex="1" parent="1">
          <mxGeometry x="507.6" y="1960" width="10" height="40" as="geometry" />
        </mxCell>
        <mxCell id="h63ALeqCffesYacsJlQR-179" value="&lt;&lt;ajax&gt;&gt;" style="edgeStyle=elbowEdgeStyle;elbow=vertical;verticalLabelPosition=top;verticalAlign=bottom;entryX=0;entryY=0;entryDx=0;entryDy=0;" edge="1" parent="1" target="h63ALeqCffesYacsJlQR-180">
          <mxGeometry x="540" y="270" width="100" height="100" as="geometry">
            <mxPoint x="517.6" y="2002" as="sourcePoint" />
            <mxPoint x="667.82" y="2000" as="targetPoint" />
            <Array as="points" />
          </mxGeometry>
        </mxCell>
        <mxCell id="h63ALeqCffesYacsJlQR-180" value="" style="fillColor=#CC4125;strokeColor=#660000" vertex="1" parent="1">
          <mxGeometry x="792.5" y="2000" width="10" height="50" as="geometry" />
        </mxCell>
        <mxCell id="h63ALeqCffesYacsJlQR-181" value="" style="fillColor=#CC4125;strokeColor=#660000" vertex="1" parent="1">
          <mxGeometry x="180" y="2320" width="10" height="30" as="geometry" />
        </mxCell>
        <mxCell id="h63ALeqCffesYacsJlQR-182" value="" style="fillColor=#CC4125;strokeColor=#660000" vertex="1" parent="1">
          <mxGeometry x="507.6" y="2120" width="10" height="60" as="geometry" />
        </mxCell>
        <mxCell id="h63ALeqCffesYacsJlQR-183" value="" style="fillColor=#CC4125;strokeColor=#660000" vertex="1" parent="1">
          <mxGeometry x="320.32000000000005" y="2173.01" width="10" height="60" as="geometry" />
        </mxCell>
        <mxCell id="h63ALeqCffesYacsJlQR-184" value="&lt;&lt;TermitateSession&gt;&gt;" style="edgeStyle=elbowEdgeStyle;elbow=vertical;dashed=1;verticalLabelPosition=bottom;verticalAlign=top;" edge="1" parent="1" target="h63ALeqCffesYacsJlQR-188">
          <mxGeometry x="550" y="280" width="100" height="100" as="geometry">
            <mxPoint x="330.32" y="2233.01" as="sourcePoint" />
            <mxPoint x="500.0399999999999" y="2233.01" as="targetPoint" />
            <Array as="points" />
          </mxGeometry>
        </mxCell>
        <mxCell id="h63ALeqCffesYacsJlQR-185" value="&lt;&lt;ajax&gt;&gt;" style="edgeStyle=elbowEdgeStyle;elbow=vertical;dashed=1;verticalLabelPosition=bottom;verticalAlign=top;exitX=-0.078;exitY=0.358;exitDx=0;exitDy=0;exitPerimeter=0;entryX=1;entryY=0;entryDx=0;entryDy=0;" edge="1" parent="1">
          <mxGeometry x="550" y="280" width="100" height="100" as="geometry">
            <mxPoint x="506.9199999999999" y="2173.00838" as="sourcePoint" />
            <mxPoint x="330.32" y="2176.99" as="targetPoint" />
            <Array as="points">
              <mxPoint x="423.64" y="2176.99" />
            </Array>
          </mxGeometry>
        </mxCell>
        <mxCell id="h63ALeqCffesYacsJlQR-186" value="" style="fillColor=#CC4125;strokeColor=#660000" vertex="1" parent="1">
          <mxGeometry x="670" y="2060" width="10" height="60" as="geometry" />
        </mxCell>
        <mxCell id="h63ALeqCffesYacsJlQR-187" value="exit()" style="edgeStyle=elbowEdgeStyle;elbow=vertical;dashed=1;verticalLabelPosition=bottom;verticalAlign=top" edge="1" parent="1">
          <mxGeometry width="100" height="100" as="geometry">
            <mxPoint x="667.82" y="2120" as="sourcePoint" />
            <mxPoint x="517.6" y="2120" as="targetPoint" />
            <Array as="points">
              <mxPoint x="590.82" y="2120" />
            </Array>
            <mxPoint as="offset" />
          </mxGeometry>
        </mxCell>
        <mxCell id="h63ALeqCffesYacsJlQR-188" value="" style="fillColor=#CC4125;strokeColor=#660000" vertex="1" parent="1">
          <mxGeometry x="507.6" y="2226.02" width="10" height="60" as="geometry" />
        </mxCell>
        <mxCell id="h63ALeqCffesYacsJlQR-189" value="&lt;&lt;ajax&gt;&gt;" style="edgeStyle=elbowEdgeStyle;elbow=vertical;verticalLabelPosition=top;verticalAlign=bottom;" edge="1" parent="1">
          <mxGeometry x="540" y="270" width="100" height="100" as="geometry">
            <mxPoint x="519.78" y="2267.19" as="sourcePoint" />
            <mxPoint x="670" y="2265.19" as="targetPoint" />
            <Array as="points" />
          </mxGeometry>
        </mxCell>
        <mxCell id="h63ALeqCffesYacsJlQR-190" value="&lt;&lt;ajax&gt;&gt;" style="edgeStyle=elbowEdgeStyle;elbow=vertical;verticalLabelPosition=top;verticalAlign=bottom;entryX=0.25;entryY=0;entryDx=0;entryDy=0;" edge="1" parent="1">
          <mxGeometry x="540" y="270" width="100" height="100" as="geometry">
            <mxPoint x="519.78" y="2285.6" as="sourcePoint" />
            <mxPoint x="795" y="2285.6" as="targetPoint" />
            <Array as="points" />
          </mxGeometry>
        </mxCell>
        <mxCell id="h63ALeqCffesYacsJlQR-191" value="" style="fillColor=#CC4125;strokeColor=#660000" vertex="1" parent="1">
          <mxGeometry x="670" y="2260" width="10" height="60" as="geometry" />
        </mxCell>
        <mxCell id="h63ALeqCffesYacsJlQR-192" value="" style="fillColor=#CC4125;strokeColor=#660000" vertex="1" parent="1">
          <mxGeometry x="797.5" y="2286.02" width="10" height="50" as="geometry" />
        </mxCell>
        <mxCell id="h63ALeqCffesYacsJlQR-193" value="viewHistory()" style="edgeStyle=elbowEdgeStyle;elbow=vertical;dashed=1;verticalLabelPosition=bottom;verticalAlign=top;entryX=0.25;entryY=0;entryDx=0;entryDy=0;" edge="1" parent="1">
          <mxGeometry x="550" y="280" width="100" height="100" as="geometry">
            <mxPoint x="190" y="2350.01" as="sourcePoint" />
            <mxPoint x="512.28" y="2350" as="targetPoint" />
            <Array as="points" />
          </mxGeometry>
        </mxCell>
        <mxCell id="h63ALeqCffesYacsJlQR-194" value="" style="fillColor=#CC4125;strokeColor=#660000" vertex="1" parent="1">
          <mxGeometry x="320.32" y="2370" width="10" height="40" as="geometry" />
        </mxCell>
        <mxCell id="h63ALeqCffesYacsJlQR-198" value="" style="fillColor=#CC4125;strokeColor=#660000" vertex="1" parent="1">
          <mxGeometry x="180" y="2420" width="10" height="40" as="geometry" />
        </mxCell>
        <mxCell id="h63ALeqCffesYacsJlQR-199" value="" style="fillColor=#CC4125;strokeColor=#660000" vertex="1" parent="1">
          <mxGeometry x="509.78" y="2350" width="10" height="70" as="geometry" />
        </mxCell>
        <mxCell id="h63ALeqCffesYacsJlQR-200" value="&lt;&lt;loadHistory&gt;&gt;" style="edgeStyle=elbowEdgeStyle;elbow=vertical;verticalLabelPosition=top;verticalAlign=bottom;entryX=0;entryY=0.75;entryDx=0;entryDy=0;" edge="1" parent="1" target="h63ALeqCffesYacsJlQR-199">
          <mxGeometry x="540" y="270" width="100" height="100" as="geometry">
            <mxPoint x="330.31999999999994" y="2412" as="sourcePoint" />
            <mxPoint x="480.53999999999996" y="2410" as="targetPoint" />
            <Array as="points" />
          </mxGeometry>
        </mxCell>
        <mxCell id="h63ALeqCffesYacsJlQR-201" value="&lt;&lt;ajax&gt;&gt;" style="edgeStyle=elbowEdgeStyle;elbow=vertical;dashed=1;verticalLabelPosition=bottom;verticalAlign=top;exitX=-0.078;exitY=0.358;exitDx=0;exitDy=0;exitPerimeter=0;entryX=1;entryY=0;entryDx=0;entryDy=0;" edge="1" parent="1">
          <mxGeometry x="550" y="280" width="100" height="100" as="geometry">
            <mxPoint x="506.91999999999985" y="2369.99838" as="sourcePoint" />
            <mxPoint x="330.32" y="2373.9799999999996" as="targetPoint" />
            <Array as="points">
              <mxPoint x="423.64" y="2373.9799999999996" />
            </Array>
          </mxGeometry>
        </mxCell>
        <mxCell id="h63ALeqCffesYacsJlQR-202" value="&lt;&lt;ajax&gt;&gt;" style="edgeStyle=elbowEdgeStyle;elbow=vertical;dashed=1;verticalLabelPosition=bottom;verticalAlign=top;exitX=-0.078;exitY=0.358;exitDx=0;exitDy=0;exitPerimeter=0;entryX=1;entryY=0;entryDx=0;entryDy=0;" edge="1" parent="1" target="h63ALeqCffesYacsJlQR-198">
          <mxGeometry x="550" y="280" width="100" height="100" as="geometry">
            <mxPoint x="509.09999999999985" y="2419.99838" as="sourcePoint" />
            <mxPoint x="332.5" y="2423.9799999999996" as="targetPoint" />
            <Array as="points">
              <mxPoint x="425.82" y="2423.9799999999996" />
            </Array>
          </mxGeometry>
        </mxCell>
      </root>
    </mxGraphModel>
  </diagram>
</mxfile>
